Coordinates
version=1
nRows=11
nColumns=63
inDegrees=yes

Units are S.I. units (second, meters, Newtons, ...)
If the header above contains a line with 'inDegrees', this indicates whether rotational values are in degrees (yes) or radians (no).

endheader
time	pelvis_tilt	pelvis_list	pelvis_rotation	pelvis_tx	pelvis_ty	pelvis_tz	hip_flexion_r	hip_adduction_r	hip_rotation_r	knee_angle_r	knee_angle_r_beta	ankle_angle_r	subtalar_angle_r	mtp_angle_r	hip_flexion_l	hip_adduction_l	hip_rotation_l	knee_angle_l	knee_angle_l_beta	ankle_angle_l	subtalar_angle_l	mtp_angle_l	L5_S1_Flex_Ext	L5_S1_Lat_Bending	L5_S1_axial_rotation	L4_L5_Flex_Ext	L4_L5_Lat_Bending	L4_L5_axial_rotation	L3_L4_Flex_Ext	L3_L4_Lat_Bending	L3_L4_axial_rotation	L2_L3_Flex_Ext	L2_L3_Lat_Bending	L2_L3_axial_rotation	L1_L2_Flex_Ext	L1_L2_Lat_Bending	L1_L2_axial_rotation	L1_T12_Flex_Ext	L1_T12_Lat_Bending	L1_T12_axial_rotation	Abs_r3	Abs_r2	Abs_r1	Abs_t1	Abs_t2	neck_flexion	neck_bending	neck_rotation	arm_flex_r	arm_add_r	arm_rot_r	elbow_flex_r	pro_sup_r	wrist_flex_r	wrist_dev_r	arm_flex_l	arm_add_l	arm_rot_l	elbow_flex_l	pro_sup_l	wrist_flex_l	wrist_dev_l
      5.43333333	      0.13745410	      4.02149306	     87.34157932	      0.20093708	      0.69052722	      0.73198115	     -8.13822410	      1.61207957	     18.82812608	      0.66713813	      0.01164376	     26.03705212	    -15.37131775	      0.00000000	     -2.35799179	     -2.41119668	    -12.02801614	     13.56239038	      0.23670837	     35.16091038	      8.83311060	      0.00000000	      0.22174046	     -2.26755634	     -0.30991369	      0.41179421	     -3.01584994	     -0.32928329	      0.36429740	     -5.51333649	     -0.32928329	      0.25342717	     -5.51333649	     -0.27117447	      0.20590819	     -4.62400089	     -0.25180487	      0.12670250	     -3.51244477	     -0.23243526	      1.58386993	    -25.65105086	     -1.72364694	      0.00000000	      0.00000000	     27.73327843	     -6.75996422	     16.85379680	     38.37717057	    -14.11803240	     58.21522787	    134.92629156	     83.79300949	      1.77730473	     16.27435347	     13.19798493	    -19.04966898	    130.39207989	      3.74581264	      8.40797751	      1.81768193	     -2.15191709
      5.45000000	      0.27931946	      4.00521319	     87.48454042	      0.20020827	      0.69073985	      0.73076222	     -8.27572493	      1.69826405	     18.73429542	      0.71504316	      0.01247986	     25.77260676	    -15.22886729	      0.00000000	     -2.45430744	     -2.47526815	    -11.76814549	     13.45051014	      0.23475569	     35.02142242	      8.50091346	      0.00000000	      0.25433503	     -2.22737997	     -0.46228612	      0.47232558	     -2.96241537	     -0.49117900	      0.41784702	     -5.41565167	     -0.49117900	      0.29067951	     -5.41565167	     -0.40450035	      0.23617551	     -4.54207324	     -0.37560747	      0.14532704	     -3.45021158	     -0.34671459	      1.81668968	    -25.19656775	     -2.57109671	      0.00000000	      0.00000000	     27.89412305	     -6.69314912	     20.09844734	     38.59505411	    -13.56056945	     59.05164058	    133.48349742	     80.21155223	     -0.18280267	     17.31893720	     12.07955523	    -18.46302339	    145.32229888	      2.10809954	     16.03285734	      5.84484090	     -1.35448729
      5.46666667	      0.29084222	      3.85463031	     87.50953471	      0.19984719	      0.69057861	      0.72979823	     -8.22157971	      1.65156770	     18.87873873	      0.79613123	      0.01389511	     25.62534684	    -15.13441577	      0.00000000	     -2.46404259	     -2.41538824	    -11.82613444	     13.16588250	      0.22978800	     34.81958284	      8.37597658	      0.00000000	      0.30474056	     -2.20765410	     -0.58358122	      0.56593369	     -2.93617995	     -0.62005505	      0.50065827	     -5.36769018	     -0.62005505	      0.34828799	     -5.36769018	     -0.51063357	      0.28298208	     -4.50184824	     -0.47415974	      0.17412876	     -3.41965620	     -0.43768592	      2.17673135	    -24.97342472	     -3.24570369	      0.00000000	      0.00000000	     28.05039356	     -6.17443392	     22.91507382	     38.44077987	    -13.24259782	     59.53702902	    132.07627183	     82.80604947	     -0.14897104	     18.00583406	     11.50452077	    -17.64242729	    157.98357693	      1.61274760	     27.26532721	      7.84959625	     -3.13837884
      5.48333333	      0.23766178	      3.59529078	     87.29038574	      0.19967448	      0.69006683	      0.72884545	     -7.99924951	      1.51822203	     19.31217727	      0.93534495	      0.01632485	     25.49559548	    -15.27169322	      0.00000000	     -2.44485933	     -2.26319625	    -12.10659260	     12.74324833	      0.22241164	     34.65041567	      8.26198160	      0.00000000	      0.37214394	     -2.19587009	     -0.60259043	      0.69110851	     -2.92050723	     -0.64025233	      0.61139528	     -5.33903855	     -0.64025233	      0.42532331	     -5.33903855	     -0.52726662	      0.34557286	     -4.47781830	     -0.48960472	      0.21264305	     -3.40140278	     -0.45194282	      2.65818695	    -24.84012168	     -3.35142718	      0.00000000	      0.00000000	     28.17098966	     -5.55489201	     25.01922349	     37.73116025	    -13.42149964	     59.54358704	    130.39725592	     86.54367834	      1.03354479	     18.90624851	     10.89670041	    -16.76491532	    163.40887877	      1.67897108	     32.64961549	      8.21461530	     -3.88942236
      5.50000000	      0.07192193	      3.21825513	     87.08923649	      0.19964858	      0.68930482	      0.72783654	     -7.59254213	      1.31371574	     19.51406879	      1.13478584	      0.01980575	     25.56974168	    -15.31274664	      0.00000000	     -2.36642870	     -1.99494735	    -12.41526437	     12.16212038	      0.21226904	     34.41867021	      8.20866808	      0.00000000	      0.46108909	     -2.20704852	     -0.53961776	      0.85628854	     -2.93537453	     -0.57334387	      0.75752326	     -5.36621777	     -0.57334387	      0.52697872	     -5.36621777	     -0.47216554	      0.42816733	     -4.50061334	     -0.43843943	      0.26346630	     -3.41871816	     -0.40471332	      3.29351323	    -24.96657426	     -3.00119210	      0.00000000	      0.00000000	     28.25206668	     -5.30761755	     25.60790393	     36.25389396	    -14.08439893	     58.97353630	    127.81417767	     87.56765150	      1.62286622	     19.22756436	     10.39519334	    -16.25610402	    163.54552482	      1.74434633	     32.45487406	      7.76265757	     -3.63739158
      5.51666667	     -0.08279484	      2.93557538	     86.66608967	      0.20001354	      0.68845944	      0.72769944	     -7.15421380	      1.12108148	     20.03408110	      1.39658011	      0.02437492	     25.77227281	    -15.53096535	      0.00000000	     -2.29966048	     -1.79390491	    -13.25628610	     11.74513685	      0.20499131	     34.38707985	      8.57844171	      0.00000000	      0.52491866	     -2.21848516	     -0.44993391	      0.97482644	     -2.95058526	     -0.47805478	      0.86238887	     -5.39402481	     -0.47805478	      0.59992954	     -5.39402481	     -0.39369217	      0.48743947	     -4.52393493	     -0.36557131	      0.29993852	     -3.43643351	     -0.33745044	      3.74944150	    -25.09594779	     -2.50239745	      0.00000000	      0.00000000	     28.31214011	     -4.36105726	     26.67072706	     34.47300817	    -14.38809395	     57.14463947	    123.76827823	     88.05033069	      5.61422651	     19.44817653	      9.97428561	    -16.04174897	    159.17566554	      1.97536310	     24.64803402	      6.57745987	     -1.08721828
      5.53333333	     -0.31555250	      2.55671385	     86.38109242	      0.20027602	      0.68732060	      0.72830316	     -6.49450982	      0.90989857	     20.16836403	      1.75740589	      0.03067252	     26.25399953	    -15.47969863	      0.00000000	     -2.06887032	     -1.53575627	    -14.00334198	     11.30762130	      0.19735522	     34.42276332	      9.09564226	      0.00000000	      0.58821853	     -2.24848849	     -0.34999959	      1.09238064	     -2.99048969	     -0.37187456	      0.96638423	     -5.46697492	     -0.37187456	      0.67227496	     -5.46697492	     -0.30624964	      0.54621973	     -4.58511773	     -0.28437467	      0.33610807	     -3.48290867	     -0.26249969	      4.20158617	    -25.43535152	     -1.94659271	      0.00000000	      0.00000000	     28.34546386	     -3.73175675	     26.44375705	     32.51990344	    -14.60022918	     55.35345373	    118.68766931	     88.16318996	      7.77932248	     18.39798922	      9.54775514	    -16.06668832	    150.84663653	      2.30404115	     11.83109029	      4.15443320	      0.16559921
      5.55000000	     -0.43752928	      2.17133383	     86.06309957	      0.20002305	      0.68603638	      0.73011134	     -5.66750383	      0.81773068	     20.19876596	      2.25825062	      0.03941391	     26.78010585	    -15.34343695	      0.00000000	     -1.73273623	     -1.38438399	    -14.74647513	     10.94855967	      0.19108841	     34.60323288	      9.66497140	      0.00000000	      0.61926409	     -2.26195977	     -0.21478028	      1.15003533	     -3.00840650	     -0.22820404	      1.01738897	     -5.49972900	     -0.22820404	      0.70775692	     -5.49972900	     -0.18793274	      0.57504863	     -4.61258837	     -0.17450898	      0.35384750	     -3.50377569	     -0.16108521	      4.42334144	    -25.58774137	     -1.19454347	      0.00000000	      0.00000000	     28.35724312	     -3.50671388	     25.46278927	     30.70121320	    -14.63268713	     53.50548352	    112.83756605	     88.17593125	      9.99984411	     16.39174628	      9.63825750	    -15.75784493	    139.25447744	      2.91100288	      4.22107828	      0.88227108	     -3.25354327
      5.56666667	     -0.23662685	      1.77829772	     85.58044835	      0.19864526	      0.68473450	      0.73324797	     -4.64682459	      1.02104989	     20.14115558	      2.98116141	      0.05203108	     27.28014763	    -15.00559407	      0.00000000	     -1.30350742	     -1.47596755	    -15.11429925	     10.66165294	      0.18608095	     34.86753817	      9.63500864	      0.00000000	      0.61075007	     -2.20427447	     -0.02524628	      1.13422396	     -2.93168504	     -0.02682417	      1.00340129	     -5.35947294	     -0.02682417	      0.69802626	     -5.35947294	     -0.02209049	      0.56714252	     -4.49495650	     -0.02051260	      0.34898259	     -3.41442115	     -0.01893471	      4.36252669	    -24.93519365	     -0.14041222	      0.00000000	      0.00000000	     28.34690014	     -3.96331872	     24.82523135	     29.23047391	    -14.68435872	     51.88038459	    106.69759350	     88.16072935	     11.78382314	     14.21652709	     10.79867895	    -14.55283633	    129.08421184	      3.45409300	      2.78667785	     -1.67541611	    -10.16784159
      5.58333333	      0.36084772	      1.32989862	     84.77101217	      0.19576297	      0.68352681	      0.73739833	     -3.41770271	      1.54665745	     20.17991149	      3.91739051	      0.06837136	     27.71139192	    -14.47962216	      0.00000000	     -0.81571221	     -1.85243776	    -15.34306363	     10.38294434	      0.18121656	     35.22741306	      9.14176735	      0.00000000	      0.57536108	     -2.04967996	      0.25856117	      1.06850306	     -2.72607434	      0.27472124	      0.94526072	     -4.98359185	      0.27472124	      0.65758018	     -4.98359185	      0.22624102	      0.53428030	     -4.17970737	      0.21008095	      0.32876132	     -3.17495425	      0.19392088	      4.10974666	    -23.18638961	      1.43803964	      0.00000000	      0.00000000	     28.31254785	     -5.03163502	     25.46649903	     28.19037648	    -15.16854554	     50.75484655	    100.99095266	     88.13020381	     12.16476802	     13.44671254	     12.92520494	    -11.87231142	    127.62819777	      2.44245192	      1.90640084	     -3.07378085	    -18.98426696
      5.60000000	      1.52184371	      0.92496242	     83.88344989	      0.19079255	      0.68276062	      0.74241939	     -2.13851064	      2.53354525	     19.16905332	      5.04912711	      0.08812389	     28.18069515	    -12.52430647	      0.00000000	     -0.34906241	     -2.67138756	    -14.96759798	     10.16426006	      0.17739980	     35.53691329	      7.79531703	      0.00000000	      0.49637077	     -1.78475028	      0.68331174	      0.92181016	     -2.37371787	      0.72601872	      0.81548754	     -4.33944183	      0.72601872	      0.56730216	     -4.33944183	      0.59789777	      0.46092990	     -3.63946277	      0.55519079	      0.28362626	     -2.76457818	      0.51248380	      3.54552679	    -20.18945209	      3.80037490	      0.00000000	      0.00000000	     28.23666042	     -7.37803781	     26.43474510	     27.13772568	    -16.62654405	     49.73347822	     95.95531294	     88.23339998	     11.34850619	     13.37672673	     16.26196622	     -7.37648698	    133.02089119	      1.05808821	      1.47510885	     -9.90655279	    -23.71722174
